<?xml version="1.0" encoding="utf-8"?>
<!-- Generator: Adobe Illustrator 26.1.0, SVG Export Plug-In . SVG Version: 6.00 Build 0)  -->
<svg version="1.1" id="Layer_1" xmlns="http://www.w3.org/2000/svg" xmlns:xlink="http://www.w3.org/1999/xlink" x="0px"
     y="0px"
     viewBox="0 0 700 700" style="enable-background:new 0 0 700 700;" xml:space="preserve">
<style type="text/css">
	.st0{display:none;fill:#E20C0C;}
	.st1{fill:#F172A1;}
	.st2{fill:none;}
	.st3{font-family:'ArialMT';}
	.st4{font-size:12px;}
	.st5{fill:#B39BC8;}
	.st6{font-family:'karen-Regular';}
	.st7{font-size:108.1702px;}
</style>
    <g id="Layer_1_00000119811648619294152420000012952033850515689623_">
	<path class="st0" d="M626.2,184.8c-2.1-7.9-9-22-31-27.6c-3.9-1-7.9-1.5-11.8-1.5c-19,0-33.7,11.1-44.4,19.3
		c-1.9,1.5-3.9,3-5.6,4.2c-2.4-1.2-5.5-2.7-9.4-4.2c2.7-16.9-3.2-36.7-15-49.3c-8.7-9.4-20.2-14.5-32.3-14.5c-2.3,0-4.7,0.2-7,0.6
		c-14.5,2.4-27.7,10.7-39.4,24.7c-12.8,15.4-20.8,18.7-21.2,18.8c-1.6,0.6-3.1,1.4-4.5,2.4l0,0c0.1-0.1,1.4-1.6,1.4-1.6
		c9.9-11.3,25-28.5,17.1-54.7C418.7,86.6,406,69,370.7,69h-2.9c-1.8-2-3.9-4.4-6.6-7.2c-8.2-8.4-23.5-23.9-46.5-23.9
		c-2.4,0-4.8,0.2-7.3,0.5c-14.3,2-24.2,11.2-31.1,18.2c-2.1-2.2-4.9-5.3-8.5-9.5c-2.7-3.2-5.3-6.2-7.7-8.7c-9.2-9.9-18.7-12-25.1-12
		c-5.6,0-10,1.6-12.7,2.9c-15.5,7.6-20.1,25.7-17.8,40.4c1.6,10.1,7.2,19.3,13.2,29c1.9,3.2,3.9,6.4,5.5,9.3c-1.1,0.5-2.3,1-3.8,1.5
		c-12,4.6-34.5,13.2-37.6,41.3c-2.6,23.6,12.3,43.6,25.8,53.7c9.4,7,19.1,9.3,26.9,10c-0.2,0.2-0.4,0.4-0.5,0.6
		c-5.1,6.1-10.9,13.1-15.9,20c-14,19.2-15.8,37.7-16.2,50.3c-2.6-0.1-5.6-0.3-8.6-0.5c-7.3-0.4-15.5-0.9-22.9-0.9
		c-1.9,0-3.6,0-5.4,0.1c-32.7,1.3-43.8,21.7-47,30.4c-4.7,12.6-10.3,62.7-7.5,84.5c3.1,23.7,14.8,44.1,24.1,57
		c13.1,18.3,29.9,28.4,47.1,28.4c9.4,0,18.3-2.9,26.4-8.7c12-8.5,18.8-19,20.3-31.1c2.2-17.9-8.1-32.5-18.5-44.5
		c-4.3-4.9-5.9-6.9-6.8-9.9c2.9,1.3,6.2,2.1,9.6,2.1l0,0c1.2,0.1,6.4,1.3,8.4,1.7c8.9,2,20.1,4.5,32,4.5c4.4,0,8.7-0.4,12.9-1.2
		c2.4,3.9,5.8,7.1,10,9.1c7.3,3.5,40,18.3,49.9,22.7l2.8,1.3c1.2,0.5,2.5,1,3.7,1.3c-1.5,27.9,13.8,49.2,21.4,60l0.1,0.1
		c-9.1,11.5-20.5,29.9-26.4,46.9c-11.2,32,7.6,47.5,16.6,54.9c6.8,5.6,15.2,8.6,24.2,8.6c4.2,0,8.4-0.7,12.5-1.9
		c15.4-4.8,27.9-17.9,32.4-34.1c3.8-13.5,7.1-21.9,16.7-36c2.8-4.2,5.7-7,8.8-9.9c6.8-6.6,17.1-16.5,16.6-35.4
		c-0.4-14.8-9-25.1-14.7-31.9c-1.1-1.3-2.5-3-3.6-4.5c0.7-0.3,1.2-0.6,1.6-0.8c4.5-2.3,10-5.1,15.7-9.3c3.3-2.5,6.3-5.2,8.9-8.1
		c2.2,13.3,7.3,24.3,15.4,33.2c12.5,13.7,30.7,21.8,48.7,21.8c8.6,0,16.2-1.9,22-5.3c11.4-6.5,48.9-30.4,54.7-66.7
		c3.8-23.5-8.9-34.1-14.5-37.5c-5.3-3.3-11.3-4.9-17.9-4.9c-13.9,0-25.2,7.3-28.4,9.6c-0.2,0.1-0.3,0.2-0.5,0.3
		c0.1-0.2,0.2-0.5,0.2-0.7c12.9-39.4-7.5-58.1-24.5-68.7c3.1-1.8,5.2-3.5,6.3-4.5c3-2.8,5.2-6.3,6.4-10.1c2.5,0.2,4.9,0.2,7.2,0.2
		c5.5,0,10.6-0.4,15.2-1.3c34.8-6.3,46-31.2,47.2-45c0.3-3.7-0.2-7.5-1.6-10.9c3.5-2.8,7.1-6.1,11-10
		C624.6,215.6,630.2,199.7,626.2,184.8L626.2,184.8z"/>
        <path class="st1" d="M415,170c3.6-1.4,13.6-6.6,27.6-23.4c9.1-11,19.1-17.4,29.7-19.1c9.3-1.5,18.2,1.7,25,9.1
		c9,9.7,13.4,25.8,10.4,38.3c-1,4.2-5.2,6.7-9.4,5.8c-4.2-1-6.8-5.2-5.8-9.4c1.8-7.6-1.1-18.2-6.7-24.1c-3.3-3.6-6.9-5-11.1-4.3
		c-8.4,1.4-15.6,8.2-20.2,13.7c-15,18-26.7,25.1-33.8,28c-0.9,0.4-1.9,0.5-2.8,0.5c-3.1,0-6-1.9-7.2-4.9
		C409,176.1,411,171.6,415,170L415,170z"/>
        <path class="st1" d="M185.5,373.9c0.3,3.6,0.6,6.6,0.8,9.3c1.1,14.6,1.2,15.2,11.7,27.3c8.1,9.3,16.1,20.4,14.7,32.1
		c-0.9,7.5-5.4,14-13.7,19.9c-5.4,3.9-11.2,5.7-17.1,5.7c-11.8,0-23.9-7.5-34.1-21.8c-8.2-11.4-18.5-29.4-21.2-49.8
		c-2.6-19.8,3.1-67.5,6.6-76.9c2.6-7.1,10.4-19.1,32.6-20c7.9-0.3,18,0.3,26.9,0.8c7,0.4,14.3,0.8,17.2,0.5c6.2-0.6,7.9-1.7,8-7.9
		l0.1-3.4c0.2-11.9,0.6-28.2,13.3-45.6c4.7-6.4,10.1-12.9,15.3-19.2c6.2-7.4,15.5-18.6,16.2-22.1c0.7-3.8,0.3-5,0.2-5.2
		c0,0-1-0.5-3.7-0.5c-0.9,0-1.9,0-3.2,0.2c-15.1,1.6-27.6,2.2-38.9-6.1c-10.1-7.5-21.3-22.2-19.4-39c2-18.4,16.7-24,27.4-28.1
		c16-6.1,18.1-10,16.4-14.9c-2-5.9-6.2-12.7-10.3-19.3c-5.1-8.3-9.9-16.2-11-23.2c-1.4-8.5,0.9-19.5,9-23.5c2.8-1.4,10.4-3.6,19,5.6
		c2.3,2.4,4.7,5.3,7.3,8.3c5,5.9,16.8,19.6,21.1,19.6l0,0c2.2-0.4,6.2-4.5,9.4-7.9c5.9-6.1,13.3-13.6,23.3-15
		c17.7-2.4,29.5,7.9,40.2,18.8c2.5,2.6,4.5,4.8,6.1,6.6c4.8,5.5,4.8,5.5,11.8,5.3c10-0.2,33.6-0.5,40,20.9
		c5.3,17.8-4.9,29.4-13.8,39.6l-1.1,1.3c-9.8,11.2-9.5,12.1-4.5,17.3c2.8,2.9,5.3,5.1,7.5,7c6.2,5.6,12.1,10.8,11.3,21.1
		c-0.4,4.3-4,7.5-8.4,7.1c-4.3-0.4-7.5-4.1-7.1-8.4c0.2-2.2-0.2-2.9-6.1-8.2c-2.3-2-5.2-4.6-8.3-7.8c-15.5-16-4.7-28.4,4-38.3
		l1.2-1.3c8.9-10.1,13.3-15.8,10.6-24.9c-2.2-7.5-8.8-10.1-24.9-9.9c-13.8,0.1-17.5-3.5-23.7-10.7c-1.5-1.7-3.2-3.6-5.5-6
		c-10.3-10.5-17.3-15.6-27-14.3c-4.7,0.6-9.6,5.6-14.3,10.5c-5.3,5.4-10.8,11-17.9,12.3C267,94,255.3,80.3,243.8,67
		c-2.4-2.8-4.7-5.5-6.9-7.8c-0.4-0.4-0.7-0.7-1-1c-0.4,1.3-0.7,3.4-0.3,5.8c0.6,3.9,5,11.1,8.9,17.5c4.5,7.3,9.1,14.9,11.7,22.4
		c7.5,21.8-16.5,31-25.5,34.4c-11.7,4.5-16.6,7.1-17.5,15.3c-1.1,9.6,5.9,19.4,13.2,24.8c6.3,4.6,13.4,4.7,28,3.2
		c9.3-1,15.8,0.7,20,5.3c5.9,6.4,4.1,15.6,3.5,18.6c-1.4,7-8,15.2-19.5,29.1c-5.1,6.1-10.3,12.3-14.7,18.4
		c-9.8,13.5-10.1,25.4-10.3,36.8l-0.1,3.6c-0.4,13.7-7.8,21.5-22,22.9c-4.1,0.4-10.9,0-19.6-0.5c-8.5-0.5-18.2-1.1-25.4-0.8
		c-15.2,0.6-17.8,7.6-18.6,9.8c-2.5,6.9-8.1,51.9-5.8,69.5c2.4,18.2,12.6,34.6,18.4,42.8c5.9,8.3,17.7,20.9,29.6,12.4
		c6.7-4.8,7.1-8.1,7.2-9.1c0.7-5.8-6-14.2-11-20.1c-13.4-15.5-14.1-19.6-15.4-36.3c-0.2-2.6-0.4-5.6-0.8-9.1
		c-0.9-9.2,1.3-16.7,6.3-22.1c8.3-8.9,21.1-8.7,25.3-8.6c4.3,0,8.1,3.5,8.1,7.8s-3.2,7.8-7.5,7.8h-0.9c-2.5,0-10.1-0.2-13.7,3.6
		C185.9,365.9,185.1,369.2,185.5,373.9L185.5,373.9z"/>
        <path class="st1" d="M340.6,171.4l1.1,2.2c6.2,12.2,8.8,18.7,0.3,32.9c-1.5,2.4-4,3.8-6.7,3.8c-1.3,0-2.7-0.4-4-1.1
		c-3.7-2.2-4.9-7-2.7-10.7c4.4-7.5,4.3-7.7-0.9-17.9l-1.2-2.3c-8.1-16.3-4.2-22.9,7.1-31c5.5-3.9,7.5-8,8-16.8
		c-2.8,0.1-7.8,1.3-11.9,2.9c-4,1.6-8.5-0.3-10.1-4.3c-1.6-4,0.3-8.5,4.3-10.1c5.7-2.3,19.8-7,27.9-1.3c3.6,2.5,5.5,6.6,5.4,11.3
		c-0.3,10.9-2.3,22.3-14.6,31c-1.3,0.9-4.5,3.2-4.9,4.1C337.9,164.2,337.8,165.8,340.6,171.4L340.6,171.4z"/>
        <path class="st1" d="M298.4,118.6c-4.2-1-6.7-5.2-5.7-9.4c1-4.1,5.2-6.7,9.3-5.7c0.6,0.1,10.4,2.1,20-5.8c3.3-2.7,8.2-2.3,10.9,1
		c2.7,3.3,2.3,8.2-1,10.9c-9.7,8.1-19.9,9.7-26.5,9.7C301.4,119.3,298.7,118.7,298.4,118.6L298.4,118.6z"/>
        <path class="st1" d="M294.5,148c-4,0.9-8,1.2-11.8,1.2c-14.6,0-25.9-5.2-26.5-5.5c-3.9-1.8-5.6-6.4-3.8-10.3
		c1.8-3.9,6.4-5.6,10.3-3.8c0.2,0.1,14,6.3,28.5,3.2c4.2-0.9,8.3,1.8,9.2,6C301.3,143,298.7,147.1,294.5,148L294.5,148z"/>
        <path class="st1" d="M274.5,377.8c-6.7,3.4-14,4.6-21.4,4.6c-10.1,0-20.3-2.3-28.6-4.1c-4.5-1-9.1-2-11.3-2c-4.3,0-7.8-3.5-7.8-7.8
		s3.5-7.8,7.8-7.8c3.9,0,8.6,1.1,14.7,2.4c12.1,2.7,28.7,6.4,39.5,0.9c13.6-7,10.9-32.5,10.9-32.8c-0.5-4.3,2.5-8.1,6.8-8.6
		c4.2-0.5,8.1,2.5,8.6,6.8C293.9,330.8,297.8,365.8,274.5,377.8L274.5,377.8z"/>
        <path class="st1" d="M345.5,411.7c-1.3,2.9-4.1,4.6-7.1,4.6c-1.1,0-2.2-0.2-3.2-0.7c-1.8-0.8-44.1-19.9-52.3-23.8
		c-3.9-1.8-5.5-6.5-3.7-10.4s6.5-5.5,10.4-3.7c8,3.8,51.6,23.5,52,23.7C345.5,403.2,347.3,407.8,345.5,411.7L345.5,411.7z"/>
        <path class="st1" d="M415.9,296.6c15.6,7.5,26.8,1.2,26.9,1.2c3.7-2.2,8.5-1,10.7,2.7s1,8.5-2.7,10.7c-0.5,0.3-8.1,4.7-19.7,4.7
		c-6.3,0-13.7-1.3-21.9-5.2c-20.8-10-37.8-15.6-58.6-12.9c-4.2,0.5-8.2-2.5-8.7-6.7c-0.5-4.3,2.5-8.2,6.7-8.7
		C375.8,278.8,397.6,287.8,415.9,296.6L415.9,296.6z"/>
        <path class="st1" d="M412.1,269.6c1.3-4.1,5.6-6.4,9.7-5.2c10,3,19,7.5,27.6,11.7c11.2,5.5,21.9,10.8,32.1,11.3
		c15.8,0.9,22.1-4.1,22.2-4.1c3.3-2.6,8.1-2.3,10.9,0.9c2.7,3.2,2.6,7.9-0.5,10.7c-1,0.9-9.5,8.2-28.9,8.2c-1.5,0-3,0-4.5-0.1
		c-13.4-0.7-25.4-6.7-38.1-12.9c-8.1-4-16.5-8.1-25.3-10.8C413.1,278,410.8,273.7,412.1,269.6L412.1,269.6z"/>
        <path class="st1" d="M390.1,263.7c-1.4,4.1-5.7,6.3-9.8,4.9c-0.1,0-14.2-4.6-29.1-1.4c-14.6,3.1-26.2,14.9-26.3,15
		c-1.5,1.6-3.6,2.4-5.6,2.4c-1.9,0-3.9-0.7-5.4-2.2c-3.1-3-3.2-7.9-0.2-11c0.6-0.6,15-15.4,34.4-19.5c19.1-4,36.4,1.7,37.2,1.9
		C389.3,255.3,391.5,259.7,390.1,263.7L390.1,263.7z"/>
        <path class="st1" d="M527.9,375c-4.9,14.8-2.4,21.5-1.1,23.6c0.9,1.6,2.2,2.6,3.8,2.8c5.3,1,13.8-2.1,22.1-8.1
		c5.6-4,18.8-10.1,28.4-4.1c4.4,2.7,9.2,8.6,7.2,21.4c-4.7,29.3-37.1,49.7-46.9,55.3c-10.4,6.2-34.9,4.2-51-13.4
		c-16.2-17.8-12.7-44.8-10.9-59.3c1.3-10.4-0.9-11.7-8.1-14.3l-3.2-1.2c-2-0.7-4.7-1.8-6.3-2.1c-0.3,0.8-0.6,2.3-0.8,4.8
		c-0.1,2.2-0.2,4.4-0.3,6.5c-0.7,14.1-1.3,27.4-16.1,38.5c-4.7,3.5-9.4,5.9-13.5,8c-10,5.1-12.2,6.8-11.9,13.1
		c0.3,6.3,4.3,11.1,9,16.7c5,6,10.7,12.7,11,22c0.3,11.8-5.8,17.7-11.7,23.5c-3.4,3.2-7.2,6.9-10.9,12.5
		c-10.6,15.7-14.7,26-18.8,40.6c-3.1,11.1-11.5,20-21.8,23.2c-2.6,0.8-5.2,1.2-7.8,1.2c-5.2,0-10.1-1.7-14-5
		c-10.9-9-18.6-17.4-11.7-37.3c5.8-16.6,17.5-34.8,25.9-44.8c5.5-6.5,5.4-6.6,0.6-13.6c-0.7-1-1.5-2.1-2.3-3.3
		c-7.6-10.6-21.8-30.4-17.8-55.3c4.1-25.9,12.4-38.4,12.7-38.9c2.4-3.6,7.2-4.5,10.8-2.1c3.6,2.4,4.5,7.2,2.1,10.8
		c0,0.1-6.8,10.6-10.3,32.7c-3,18.6,8.4,34.4,15.1,43.9c1,1.3,1.8,2.5,2.5,3.6c7.6,11.2,9.5,19.3-1.6,32.4
		c-7.5,8.9-18,25.1-23.1,39.9c-3.8,10.8-1.7,13.1,6.9,20.2c2.4,2,5.6,1.4,7.3,0.9c4-1.2,9.4-5.3,11.5-12.6
		c4.5-15.9,9.1-27.8,20.9-45.1c4.7-6.9,9.3-11.4,13-14.9c5.5-5.3,7.1-7.1,7-11.8c-0.1-3.8-3.4-7.8-7.3-12.4
		c-5.4-6.5-12.2-14.5-12.7-26.1c-0.7-16.9,11-22.9,20.4-27.6c3.8-1.9,7.7-3.9,11.3-6.6c8.6-6.4,9.2-12.5,9.9-26.7
		c0.1-2.1,0.2-4.4,0.4-6.7c0.4-5.5,1.5-13.3,7.7-17.3c6.5-4.2,13.9-1.5,20.4,1l2.9,1.1c15.1,5.4,20.4,14.4,18.3,31
		c-1.6,12-4.4,34.4,6.9,46.8c11.4,12.5,28,12.7,31.6,10.5c17.2-9.8,36.5-26.5,39.4-44.4c0.7-4.5-0.1-5.8-0.1-5.8
		c-1.1-0.6-6.7,0.4-11.1,3.6c-7,5.1-20.8,13.3-34,10.8c-6-1.1-11.1-4.7-14.4-10.2c-3.6-6.1-6.6-17.3-0.3-36.4
		c6.4-19.6-0.2-25.3-11.9-32.5c-7.9-4.8-24.2,2.1-35,6.6c-3.1,1.3-5.9,2.5-8.2,3.3c-17.2,6.2-30.7-14-32.2-16.3
		c-2.3-3.6-1.3-8.4,2.4-10.7c3.6-2.3,8.4-1.3,10.7,2.3c2.8,4.3,9.6,11.6,13.8,10.1c2.1-0.8,4.6-1.8,7.4-3
		c14.5-6.2,34.5-14.6,49.2-5.6C524.6,333.7,537.3,346.2,527.9,375L527.9,375z"/>
        <path class="st1" d="M550.9,279.8c-3.8,0.7-8,1-12.4,1c-28.2,0-65.1-12.9-78.6-18.6c-3.9-1.7-5.8-6.3-4.1-10.2s6.2-5.8,10.2-4.1
		c16.9,7.2,59.3,20.8,82.1,16.6c19.3-3.5,21.3-15.4,21.4-16.8c0.5-4.2,4.3-7.3,8.5-6.9c4.2,0.4,7.3,4.1,7,8.3
		C584.9,250.2,582.5,274.1,550.9,279.8L550.9,279.8z"/>
        <path class="st1" d="M599.1,218.3c-14.7,14.5-22.9,18.8-40,24.1c-17.5,5.5-40.1,3.3-53.5-1.6c-4-1.5-6.1-6-4.6-10s6-6.1,10-4.6
		c9.1,3.4,28.5,6,43.4,1.4c15.2-4.8,21.1-7.8,33.8-20.4c6.6-6.5,8.2-11.7,7.5-14.2c-0.6-2.1-3.6-4-8.3-5.2
		c-9.9-2.5-19.8,5-29.4,12.3c-4.5,3.4-8.8,6.7-13.2,9c-11,5.7-18.1,2.1-25-1.4c-4.8-2.4-10.2-5.1-19.3-6.6
		c-12.2-1.9-27.8,3.7-41.6,8.7c-10.4,3.8-20.3,7.4-29,8c-6.7,0.5-12.9,0.1-19.5-0.2c-13-0.8-27.9-1.7-52.6,4.3
		c-33.8,8.2-55.8,36.6-61.7,45.1c-1.5,2.2-3.9,3.3-6.4,3.3c-1.5,0-3.1-0.4-4.4-1.4c-3.5-2.5-4.4-7.3-1.9-10.8
		c6.7-9.6,31.7-41.9,70.8-51.4c27-6.6,43.7-5.5,57.2-4.7c6.3,0.4,11.7,0.7,17.3,0.3c6.6-0.5,15.5-3.7,24.9-7.1
		c15.6-5.6,33.2-12,49.3-9.5c11.5,1.8,18.7,5.4,23.9,8c6.2,3.1,7.1,3.4,10.8,1.5c3.2-1.7,7-4.5,11-7.6c11.4-8.6,25.5-19.3,42.6-15
		c13.3,3.4,17.9,10.7,19.4,16.2C613.2,198.1,609.1,208.5,599.1,218.3L599.1,218.3z"/>
</g>
</svg>
